<svg viewBox="0 0 1513 400" xmlns="http://www.w3.org/2000/svg"><g><g><g><g><g><line x1="53.1875" y1="376.83409609949615" x2="48.1875" y2="376.83409609949615" style="visibility: inherit;" fill="rgb(0, 0, 0)" stroke="rgb(204, 204, 204)" stroke-width="1px"></line><line x1="53.1875" y1="304.5503610606261" x2="48.1875" y2="304.5503610606261" style="visibility: inherit;" fill="rgb(0, 0, 0)" stroke="rgb(204, 204, 204)" stroke-width="1px"></line><line x1="53.1875" y1="240.79158812998065" x2="48.1875" y2="240.79158812998065" style="visibility: inherit;" fill="rgb(0, 0, 0)" stroke="rgb(204, 204, 204)" stroke-width="1px"></line><line x1="53.1875" y1="183.75742224822378" x2="48.1875" y2="183.75742224822378" style="visibility: inherit;" fill="rgb(0, 0, 0)" stroke="rgb(204, 204, 204)" stroke-width="1px"></line></g><g transform="translate(43.1875, 0)"><text x="0" y="376.83409609949615" dx="0em" dy="0.3em" style="text-anchor: end; visibility: hidden; font-family: &quot;Helvetica Neue&quot;, sans-serif; font-size: 12px; font-weight: 200;" fill="rgb(50, 49, 63)" stroke="none" stroke-width="1px">700</text><text x="0" y="304.5503610606261" dx="0em" dy="0.3em" style="text-anchor: end; visibility: inherit; font-family: &quot;Helvetica Neue&quot;, sans-serif; font-size: 12px; font-weight: 200;" fill="rgb(50, 49, 63)" stroke="none" stroke-width="1px">800</text><text x="0" y="240.79158812998065" dx="0em" dy="0.3em" style="text-anchor: end; visibility: inherit; font-family: &quot;Helvetica Neue&quot;, sans-serif; font-size: 12px; font-weight: 200;" fill="rgb(50, 49, 63)" stroke="none" stroke-width="1px">900</text><text x="0" y="183.75742224822378" dx="0em" dy="0.3em" style="text-anchor: end; visibility: inherit; font-family: &quot;Helvetica Neue&quot;, sans-serif; font-size: 12px; font-weight: 200;" fill="rgb(50, 49, 63)" stroke="none" stroke-width="1px">1e+3</text></g><line x1="53.1875" y1="0" x2="53.1875" y2="377" fill="rgb(0, 0, 0)" stroke="rgb(204, 204, 204)" stroke-width="1px"></line></g></g><g transform="translate(53, 0)" clip-path="url(#clip_0)"><clipPath id="clip_0"><rect width="1459" height="377"></rect></clipPath><g><g><g><line x1="0" y1="0" x2="0" y2="377" fill="rgb(0, 0, 0)" stroke="rgb(60, 60, 60)" stroke-width="1px" opacity="0.25"></line><line x1="182.4765625" y1="0" x2="182.4765625" y2="377" fill="rgb(0, 0, 0)" stroke="rgb(60, 60, 60)" stroke-width="1px" opacity="0.25"></line><line x1="364.953125" y1="0" x2="364.953125" y2="377" fill="rgb(0, 0, 0)" stroke="rgb(60, 60, 60)" stroke-width="1px" opacity="0.25"></line><line x1="547.4296875" y1="0" x2="547.4296875" y2="377" fill="rgb(0, 0, 0)" stroke="rgb(60, 60, 60)" stroke-width="1px" opacity="0.25"></line><line x1="729.90625" y1="0" x2="729.90625" y2="377" fill="rgb(0, 0, 0)" stroke="rgb(60, 60, 60)" stroke-width="1px" opacity="0.25"></line><line x1="912.3828125" y1="0" x2="912.3828125" y2="377" fill="rgb(0, 0, 0)" stroke="rgb(60, 60, 60)" stroke-width="1px" opacity="0.25"></line><line x1="1094.859375" y1="0" x2="1094.859375" y2="377" fill="rgb(0, 0, 0)" stroke="rgb(60, 60, 60)" stroke-width="1px" opacity="0.25"></line><line x1="1277.3359375" y1="0" x2="1277.3359375" y2="377" fill="rgb(0, 0, 0)" stroke="rgb(60, 60, 60)" stroke-width="1px" opacity="0.25"></line><line x1="1459.8125" y1="0" x2="1459.8125" y2="377" fill="rgb(0, 0, 0)" stroke="rgb(60, 60, 60)" stroke-width="1px" opacity="0.25"></line></g><g><line x1="0" y1="376.83409609949615" x2="1459.8125" y2="376.83409609949615" fill="rgb(0, 0, 0)" stroke="rgb(60, 60, 60)" stroke-width="1px" opacity="0.25"></line><line x1="0" y1="304.5503610606261" x2="1459.8125" y2="304.5503610606261" fill="rgb(0, 0, 0)" stroke="rgb(60, 60, 60)" stroke-width="1px" opacity="0.25"></line><line x1="0" y1="240.79158812998065" x2="1459.8125" y2="240.79158812998065" fill="rgb(0, 0, 0)" stroke="rgb(60, 60, 60)" stroke-width="1px" opacity="0.25"></line><line x1="0" y1="183.75742224822378" x2="1459.8125" y2="183.75742224822378" fill="rgb(0, 0, 0)" stroke="rgb(60, 60, 60)" stroke-width="1px" opacity="0.25"></line></g></g></g><g><g><line x1="182.4765625" y1="0" x2="182.4765625" y2="377" fill="rgb(0, 0, 0)" stroke="rgb(153, 153, 153)" stroke-width="1.5px"></line></g></g><g><g><g><g><g><path stroke="rgb(255, 112, 67)" stroke-width="2px" d="M218.2054734375,-1.0586978735092885L219.190846875,4.723296245915492L219.5193046875,7.7462984770924095L221.307575,10.139962710534121L221.4170609375,11.457619526860526L222.402434375,14.01707135719181L222.8038828125,16.699977570546878L224.884115625,22.39909611637995L225.5775265625,25.801274016779473L228.533646875,34.82918347949811L230.5408890625,41.66454128268066L230.650375,45.79128660053448L231.16130937499997,48.3803022780055L231.307290625,49.52136798298187L233.059065625,51.82932073753051L233.3145328125,53.85714285714283L234.1174296875,56.41749034239689L234.5553734375,58.162017849319966L234.9203265625,59.383514529582044L236.0151859375,61.14979282326749L236.92756875,63.01688379700073L238.09541875,64.14930734784082L239.1537828125,65.18956657345666L239.73770781250002,66.03505764938905L240.32163281249998,67.9888324328819L241.08803437499998,69.89285008158885L242.3653703125,72.35545770523697L244.22663125,75.11036983716502L244.883546875,76.55365406806129L245.2120046875,78.95030664244723L245.7229390625,80.14897212167523L245.7959296875,80.90782901602233L245.905415625,81.3997080380662L247.51120937500002,83.88333832110652L249.1534984375,86.96156354549294L249.8104140625,89.44883086167908L250.138871875,91.22709066268214L250.6133109375,93.21631321089626L250.72279687500003,94.7576745859244L251.01475937499998,95.33878255833054L252.47457187499998,96.80180658463053L253.0949921875,98.22312378398647L253.56943124999998,99.67675914903327L255.540178125,101.26210869541433L256.8175140625,102.4611072327213L258.313821875,103.40196072049798L259.0072328125,104.41363936712793L262.32830625,107.70444414029345L262.76625,109.4356852698225L263.20419375,110.44295175378375L263.9341,111.16969063638396L264.11657656250003,110.88166036135277L264.153071875,110.47972129312774L264.882978125,110.72402736535798L265.0654546875,110.97943957855114L266.70774375,111.68034436868675L267.1456875,112.92224639757484L268.42302343750004,113.55704883900762L269.700359375,114.15235625955756L269.7368546875,114.48522561536504L269.8098453125,114.77860403921858L271.4156390625,113.65933080735931L272.036059375,112.75609479227847L272.10905,112.06459115396592L272.2915265625,111.54296005417274L273.203909375,110.78377745788669L273.2404046875,110.33055552553122L273.6053578125,109.93192505193628L273.6783484375,109.90217008373003L273.860825,109.87599327493541L274.9191890625,110.02952136034912L275.46661875,110.900467853642L275.685590625,111.0779976005561L280.50297187499996,112.90603095520078L282.5102140625,112.28292305479823L283.02114843749996,111.4471562817281L284.298484375,110.14125402778933L288.2034828125,108.28484367428598L290.79465,107.89708551179609L292.40044375,108.40327650688795L293.3858171875,109.71783820061358L293.495303125,110.59884833961672L295.61203125000003,112.19234497342671L297.874740625,114.42437061493331L299.1520765625,114.97435731714307L300.3929171875,116.41179829360544L300.9038515625,117.49937250437245L300.9768421875,118.28724560545578L301.0133375,118.8473539586779L303.130065625,120.00615914154963L305.7212328125,121.95309576212009L306.8890828125,123.90830346122536L308.385390625,124.22447409563003L309.5167453125,124.89545151016688L313.8961828125,125.32660116349427L314.5530984375,126.03294911471036L314.6260890625,126.73636663447829L316.4508546875,126.58862666981759L318.4945921875,127.01929554509317L319.042021875,127.06789501802061L320.939778125,127.4623023161904L321.70617968749997,128.56538780896554L321.88865625,129.01222035425454L321.961646875,129.44742549258734L323.53094531249997,131.20042491196713L325.8666453125,134.01344277520195L326.8885140625,136.42937416949093L327.91038281249996,138.0510808978329L329.8081390625,140.16944557515063L332.0708484375,142.42985161102214L332.472296875,143.71620737443956L335.1364546875,145.603281760539L335.6473890625,147.06077510115443L335.8663609375,148.05131813323604L336.77874375,149.37254445496882L336.9612203125,150.26613156117992L338.092575,151.29416366754356L339.5888828125,152.6327387356408L340.063321875,153.5765491650587L340.13631250000003,154.18762148594107L343.0924328125,153.73541115933503L344.296778125,153.56894824086032L346.4500015625,154.68942864688842L347.07042187499997,156.02296774474388L347.83682343749996,156.77837371766168L351.41336406249997,158.28576961320474L352.7271953125,159.1624211076548L352.8731765625,159.35094717040673L353.1651390625,159.9126281169342L355.8657921875,161.5090132621145L357.2526140625,162.93196746542216L357.6905578125,164.0808553681329L357.7635484375,164.9079651537644L359.1503703125,166.4396860143412L359.5883140625,167.9137482064709L361.12111718750003,169.5876531602491L363.6027984375,171.58928841161733L363.93125625,172.68767047158732L364.04074218750003,173.4788939251012L366.81438593750005,174.27610006923567L366.88737656250004,174.86939492758722L368.85812343749996,175.57841494607226L369.8799921875,177.00176686395355L372.2886828125,177.3482976089716L373.712,177.23797357337222L376.996578125,178.47981535249278L377.580503125,179.6300979902156L378.0914375,180.1398140967369L380.31765156250003,181.05705070213992L381.1205484375,181.6213033142874L383.78470625000006,182.54550620710936L383.85769687500004,183.2054451589788L385.025546875,184.836844654295L386.41236875,185.19563338651275L389.0765265625,186.47727086315416L389.2225078125,187.4163605516453L389.7699375,188.1348582505093L391.2662453125,188.75342789226733L391.37573125,189.27730700622925L394.47783281249997,189.76880850139986L395.098253125,190.4783627072019L395.20773906249997,190.75570194309697L396.4485796875,189.8876132319739L396.5215703125,189.2912906088107L396.7770375,189.786881648662L398.09086874999997,190.8491633406115L398.8572703125,192.51908896215107L399.7331578125,193.71093701704646L400.13460625,194.5516385166081L401.1199796875,194.8205140689668L401.8498859375,193.59833919205326L402.0323625,192.44725233433897L405.90086562500005,194.31614989951066L406.26581875,195.41512498356448L408.09058437500005,197.54621276602958L408.78399531250005,199.66903239648286L409.258434375,201.12963763167957L409.47740625000006,201.7705436731218L409.9518453125,202.31573453448726L412.032078125,204.13778410904945L412.8714703125,205.46455968846104L413.05394687499995,206.1619295544794L413.92983437500004,207.40381016580727L414.73273125000003,208.83670170905643L415.20717031249995,210.00410442379413L416.0830578125,210.8859459910658L419.5866078125,213.4676559222266L420.4624953125,214.63122477661506L422.4332421875,216.9934898534033L422.7981953125,218.33459164608533L423.49160625,219.34341766549258L425.462353125,220.56296814617L426.8856703125,221.8488889498296L426.99515625,222.7449925866139L427.4331,223.15972225161292L428.4184734375,223.6332551028263L428.56445468749996,223.97036904543063L432.35996718750005,225.71448823054342L432.6519296875,226.53078213103993L433.19935937500003,227.22336575725782L436.73940468750004,229.00384906534453L437.6882828125,229.88144485783084L438.4911796875,231.07308082933167L441.84874843750003,233.277422864089L442.1407109375,234.87111575139897L443.63701875,235.98589649941323L445.86323281250003,235.45448315835435L446.9945875,235.41439947134714L449.33028750000005,236.31939098109123L449.987203125,236.7392856178977L450.35215625,237.21773295720638L450.3886515625,237.53587476399423L451.0820625,238.48405528433508L451.9214546875,239.66873059190928L452.614865625,240.02488314027875L454.40313593750005,241.1193153367252L454.7680890625,242.15938259315556L454.877575,242.80512097398116L455.4250046875,243.6311903679477L456.62935000000004,244.81466575542467L460.20589062499994,244.1206420479217L461.48322656249996,243.58176162479842L463.05252499999995,242.99390830928985L463.271496875,242.64972447928918L465.7166828125,241.71091807081675L466.4465890625,241.1150456244473L466.7385515625,240.79484026466807L467.1035046875,240.7491943257443L468.380840625,241.12831290982254L470.82602656250003,241.64549896061175L471.99387656249996,242.20165436751154L474.14709999999997,242.71364020161056L475.4244359375,242.5588304598887L475.82588437500004,242.96848663303228L476.263828125,243.23367860816595L476.8842484375,243.40070593732494L481.0447140625,244.83774062986328L482.32205000000005,246.31879031780014L482.541021875,247.30455239675285L485.05919843749996,248.24186283785141L486.6649921875,249.2792227729605L486.8839640625,249.78796122032398L487.72335625,249.97301024939281L487.90583281249997,250.13832975818093L488.234290625,250.32695608329914L491.51886875,251.2219925878593L491.6283546875,251.5642528000069L492.6502234375,252.0037422113918L493.0151765625,252.32690144917416L495.1319046875,252.44536970105096L496.40924062500005,253.0106370769306L497.6135859375,253.55502528223982L497.65008124999997,253.87978497277322L499.6573234375,254.14673420588537L499.83979999999997,254.40223208327433L504.36521874999994,255.28103321908338L504.47470468750004,255.7706685081797L506.51844218749994,257.6565896207625L506.773909375,258.72393580093745L507.4673203125,259.4650866494431L507.57680625,259.8928774074849L508.3432078125,260.1883870286139L508.59867499999996,260.1987011111382L509.4380671875,260.1027999861932L510.05848749999996,260.06288792602174L510.71540312499997,259.7075964126323L510.934375,259.316533610402L511.299328125,259.16176433350597L512.9781125,258.26525305019675L513.270075,257.7904536948424L519.2188109375,256.56955847545214L519.474278125,255.69474541935313L520.4596515625,254.5393082821849L522.17493125,253.60512289069118L522.5033890625,252.6891542952265L523.6712390625,252.705459848519L524.437640625,253.2123035022966L526.0069390625,253.74044443334958L526.116425,254.01765388162892L526.84633125,254.8034979949162L527.1017984375,255.4735323155064L528.0506765625,255.86668046905493L530.6053484375,256.97187136577963L530.9338062500001,257.86026893778114L531.1892734375,258.61613807151554L531.6637125000001,258.86710207869453L532.4666093750001,258.9109961561518L533.8534312500001,258.8093556765849L534.948290625,259.4835128210827L535.7876828125,259.30051126599307L536.4445984375,259.2248320297781L538.9992703125,259.2440742001211L541.6269328125,259.4952192402416L541.73641875,259.69798039951587L543.19623125,260.56843234341414L544.07211875,260.7820271956529L546.4443140625,260.7867154480401L549.2909484375,262.7469002183184L549.473425,264.25947670634054L549.5829109375001,265.14421771010024L550.5317890625,266.06871909818L552.1375828125,266.9815945081119L552.7215078125,267.46856752683715L553.5973953125,268.3839312740487L554.217815625,268.88498596017473L556.8089828125001,269.8455157917526L557.5388890625001,270.2292708320208L557.79435625,270.83142483245825L561.9183265625,269.0691770322875L562.0278125,267.61496816368293L562.7942140625,266.4064998200192L564.9474375,266.30018331354785L565.3123906249999,266.3997426611155L565.458371875,266.4146670580111L566.5167359375,265.4921570047977L567.6845859375001,264.96391055709057L567.72108125,264.60838609117815L569.6188375,261.75886032205835L570.2392578125,259.9197219669368L570.7501921875,258.913668641088L571.3341171874999,258.0831669724638L571.9545375,258.1791275483207L573.41435,259.1858746594821L575.093134375,260.54187191108093L575.1296296875,261.4218258637893L575.9325265625,262.51768513220657L576.18799375,263.12138868780585L577.2098625,263.4771659503198L577.574815625,263.7860822356996L577.7572921875,264.2853012763436L578.1587406250001,264.7998536591193L578.4871984375,265.26349227681754L578.9981328125,265.6832086379045L580.3849546875,266.27630152946307L580.494440625,266.65212315529067L581.7352812500001,266.98848406734686L581.8812625,267.24857702615884L582.7206546875,267.57859907454565L582.9396265624999,267.76866738849316L583.0126171874999,267.8566817942002L584.4724296874999,268.4790065210795L584.6914015625,268.7782367669397L585.165840625,269.00922812232403L585.3483171875,269.1055812882012L587.6840171875,269.7601798275914L588.377428125,270.2319863486968L588.7058859374999,270.4696453588581L590.348175,270.76665037817264L591.1875671875,271.06674307190724L591.2605578125,271.2055281521425L591.297053125,271.24096939954643L593.4502765625,271.9933688573989L593.8882203125,272.4471325489855L599.2530312499999,273.593169711508L601.1872828125,274.31018726722573L601.9171890625,274.25569000442636L603.04854375,273.92200584378406L603.3770015625,273.76694861998664L603.997421875,274.1698858849812L604.2893843749999,274.17897890358637L604.6178421875001,273.96380296659345L605.7491968749999,274.94324223896956L607.1725140625,274.921735479095L607.6104578125,274.6682383599945L608.44985,274.8180478014176L608.960784375,274.7827259232585L609.033775,274.6661508996089L611.6614374999999,274.975908878336L615.821903125,275.56562777873967L618.5590515625,276.09315579307395L619.325453125,276.486160243296L619.5079296875,276.6470968846043L620.0188640625,276.8354293083013L620.56629375,276.9654935425634L620.8217609375,277.1681208172156L621.5151718750001,277.51776004606194L621.953115625,277.40511603994474L625.4931609375,277.3319638808522L626.4420390624999,276.91644712474783L626.5880203125,276.4248945291197L627.1719453124999,276.498036456822L628.7047484374999,276.82809932584485L631.0404484375,277.43176766205613L631.149934375,277.8096381363913L631.7338593750001,277.77742466388395L634.9089515625,277.5711303753614L635.237409375,277.28426655191817L636.3687640625,277.04357021543575L637.1716609375,276.7240823161321L640.638715625,277.40633293397184L643.266378125,278.296988009503L644.9451625,278.5156449964386L645.96703125,278.5825863349969L648.1202546875,279.08036020956723L648.7041796875001,279.5101613374263L649.835534375,280.1585548447669L650.8938984375001,280.5345945517173L651.9887578125,280.6693513990819L652.463196875,280.35317421945786L653.1566078125,280.4154688618029L654.72590625,281.12012557045284L655.4558125,281.41844055889476L657.572540625,282.0229312844706L658.1929609375001,282.3227787955807L659.178334375,282.62762002764276L659.9447359375,282.9382296618983L660.3826796875001,283.23528820765296L660.930109375,283.75417319769525L661.076090625,284.0422657126825L661.6965109375,284.33173828112143L663.0103421875,284.5822329125898L664.4701546875,285.2306943401548L664.50665,285.6123438329172L664.65263125,285.8901230083951L665.6745000000001,286.3032078227487L668.375153125,286.8157696732531L669.688984375,287.3033388713219L671.6232359375,288.11684340180534L671.7692171875,288.71508451904435L672.4991234375,289.05731346013863L674.28739375,289.8174901692522L675.3457578125,289.98230068544694L676.8785609375,289.89114553046886L678.739821875,289.87945116816377L679.2872515624999,289.85400962264646L679.5792140625,289.8017373319551L679.7981859375,289.7685599142374L681.7324375000001,289.4476985844723L681.8419234375,289.22893583735953L683.3017359375,289.7746365052801L684.21411875,290.35730931592883L685.2724828125,290.7175523773153L686.5133234375,291.0657503893978L687.790659375,291.0834054646424L688.6300515625001,291.3991929794325L689.2139765625001,291.6257713537945L691.148228125,292.04044085445423L691.878134375,292.4641008932158L691.9876203125,292.7286711048185L692.3525734375,292.83360696457777L692.5715453125,292.9929645741241L693.3744421875,293.070503498089L696.3670578125,293.3457089588344L701.5128968749999,293.8111596313271L701.73186875,294.2428455094222L703.9215875,294.87267027220855L703.9580828125,295.25846813700264L704.1770546875,295.6123090865995L704.5055125,295.7619649401782L705.1259328125,295.8074159914506L705.5638765625,295.8464742136956L705.7828484375,295.9182937943616L707.936071875,296.110578523115L709.7608375,296.4854018088709L711.4761171875,296.9911359990582L712.7899484375,297.39049262364074L713.6658359375,297.5707196707809L713.775321875,297.75266673714566L716.5124703125,297.4301735839216L716.7314421875,297.22091195297355L717.8263015625,296.2553922879705L718.154759375,295.6009852542562L718.300740625,295.0536281439939L718.5197125000001,294.3897883827168L720.6729359374999,293.5801262990839L721.87728125,292.9028454756267L721.9137765625,292.41757878545053L722.2057390625,291.9294190473389L722.3517203125,291.7442868661518L722.9721406250001,291.50893551911946L725.307840625,291.10692701155654L726.0012515625,290.9256756254647L727.205596875,290.9441906056876L727.2420921875,290.93198897973696L728.1179796875,290.8895027612834L730.9281187500001,291.3633807452657L733.2273234375,292.3473382059685L734.7601265625,293.01931167980854L734.9061078125001,293.4002720750913L736.5119015625,293.38226623022115L737.2053125,293.63039222294697L739.6504984375,293.7697354069392L741.7672265625001,294.2561895541942L742.387646875,294.62727301214414L742.60661875,294.93120006635286L745.5627390625,295.27207674156176L746.5846078125,295.67625108757636L747.205028125,295.8256819989797L747.27801875,295.9824794581027L748.44586875,295.8768218511913L749.5772234375,295.65851283546664L751.730446875,295.036943064046L756.9492765625,294.8960767097363L757.8251640624999,294.73358486011335L758.153621875,294.5080544786976L758.37259375,294.3600224860056L760.0513781249999,294.11225041446767L760.1608640625,294.0485197938121L760.854275,294.27243770086864L761.5476859375,294.2038166128105L765.67165625,293.37613120887295L766.1825906250001,292.9553757909479L768.4817953125,293.1502478675514L769.9051125,293.42571869832346L770.6715140625,293.8590271864416L772.8247375,294.7252138036795L773.2991765625,295.20438044517516L773.6641296875,295.4529332917971L773.8101109375,295.5746920787411L775.525390625,295.86934796649075L778.153053125,296.3256298027086L778.9559499999999,296.5882209833559L779.5763703125,296.8784327662486L781.2551546875,297.11707585071895L782.4959953125,297.65017584163405L784.8681906249999,298.55702698588556L786.8389375,299.4221663762617L787.7878156249999,300.19066691764795L787.9702921875,300.6701528541456L790.5614593749999,301.33265213603266L790.707440625,301.71995780474293L791.8752906249999,302.026282085675L793.6635609375,302.28734237427307L795.9262703124999,302.37988187382996L795.962765625,302.44089286967017L796.8751484375,302.79781309244174L797.20360625,302.92568416380686L797.714540625,303.13916217545545L799.24734375,303.3979153825066L800.1597265624999,303.5150713551102L805.3420609375,304.07330264756445L806.473415625,304.4683736741222L807.7142562500001,304.8383629918667L808.5536484375,304.8806681284964L809.9404703125,304.86236378039814L810.3054234374999,304.87075390119855L811.6557500000001,304.24887724684635L811.9477125000001,303.7792679753175L812.458646875,303.81247551246616L812.8600953125,303.5836683457576L813.5170109375,303.1872958282166L813.5900015625,302.9151715483027L814.4293937499999,302.7908381226748L814.4658890625,302.71649873284684L814.5023843749999,302.7102593739486L814.6118703125,302.7064993294085L815.30528125,302.7813810182844L816.5826171875,303.18740003816083L817.2030374999999,303.54894489360896L817.7139718750001,303.732897856357L818.4803734375,303.834423617517L819.1372890625,303.95621983246855L819.5022421875,304.0059085497935L821.2905125,304.2259187312619L822.750325,304.03467019835387L823.2612593749999,303.74009311153804L823.4802312500001,303.6247528257459L823.991165625,303.49062844187097L824.3196234375,303.40280095473275L824.5750906249999,303.369941082325L824.6115859375,303.3212162681119L824.7575671875001,303.30825100561435L825.66995,303.17377478507626L826.0349031249999,303.0036670796055L826.764809375,302.97291347274904L827.27574375,302.97897194196287L828.589575,303.1206445457283L829.2829859375,302.7527348954957L831.07125625,302.67857587760597L831.1077515625,302.5205292424523L832.2756015625,302.11490842866425L833.6624234375,302.05363554260623L837.713403125,301.78698841301076L838.0418609375,301.7272024655424L838.6257859374999,301.7712365964687L838.735271875,301.91121129621774L839.0637296875001,302.04649883635574L840.0855984374999,301.83231354538555L841.3264390625,301.68653909771933L841.362934375,301.527725730999L841.8008781249999,301.5146899524871L843.2241953125001,301.7828350546039L844.136578125,301.89224725782685L844.7569984375001,302.06167409227623L846.3627921875001,302.060257915321L847.2386796874999,302.1381809482105L848.0415765625,302.495367464307L849.0634453124999,302.3337084726717L851.0341921875,302.52000389038466L852.6399859375,302.81286875074L855.8880687500001,303.0920538036367L855.9245640624999,303.18455378951654L859.0996562500001,303.2876575736336L859.39161875,303.4266435886422L861.0339078125,303.52723328312175L863.2236265624999,303.44422981904495L865.449840625,303.62124428801525L865.7053078125,303.92330946972766L866.763671875,304.02288000012004L868.1139984375,304.2404148843794L868.7344187499999,304.11452004340276L870.2672218749999,304.18615299253156L872.0189968750001,303.66506673969394L873.4788093750001,303.3242060155875L874.3911921875,303.2353531464401L875.0846031250001,303.3622014908239L875.2670796875,303.4270814372866L876.1064718749999,303.42837499986564L876.90936875,303.37695988635824L877.6757703125,303.4889258281462L879.3910500000001,304.0044394391584L880.1574515625001,304.3573309458242L881.507778125,304.8457169975182L882.091703125,305.0876291633346L884.20843125,305.0606667004919L885.814225,304.99695388396873L885.9602062499999,305.0164142766255L886.8725890625,305.12942362648164L893.624221875,305.71488123631264L894.1716515625,306.03425618685003L894.2811375,306.21208523000524L895.084034375,306.2463542361784L895.30300625,306.112119802371L896.1423984374999,306.1500324024845L897.05478125,306.37919347403334L897.6022109374999,306.7299976637546L899.0620234374999,307.281981801777L899.2809953125001,307.5660127999892L899.7919296875,307.8928123109317L900.1933781250001,308.051308481358L900.5218359374999,308.2171771202279L902.2006203125001,308.38251906008054L902.4560875,308.53922714481644L902.60206875,308.666181874311L902.8210406250001,308.686716529354L904.9742640625,308.165032724694L905.9596375000001,307.86549404718176L906.7990296875,307.61370911155734L909.3537015625,307.5339849162504L910.1565984375,307.3753638552645L911.3609437499999,306.92755569616384L911.6529062500001,306.74113078828333L911.9813640625,306.445858328536L912.23683125,306.2464992569402L913.69664375,305.8142040865715L914.1710828125,305.1288835585226L914.3535593749999,304.6670474267762L914.5725312499999,304.38260396905525L914.6820171875,304.2248046788277L917.4556609375,304.3662498431972L917.4921562499999,304.3913634448128L917.5651468750001,304.33601464132573L919.0979500000001,304.5252089475342L919.2074359375,304.6205662102675L920.3387906249999,304.7203390475053L921.3241640625,304.8680592353083L921.43365,304.91936552349176L921.6161265625001,304.9468121568481L923.6598640625,304.68487896590364L924.20729375,304.54927177935286L924.5357515625001,304.5625931471891L924.6087421875001,304.61507769193383L926.0320593749999,304.7928672508905L926.3970125000001,305.0193130743384L926.907946875,305.08009747742335L928.4772453124999,305.10653341871557L929.2801421875,305.0552911519724L930.119534375,305.03842063591554L931.6158421875001,304.7616960416596L932.09028125,304.72024784124915L932.1267765625,304.6586316021435L932.8566828124999,304.06581780081285L932.9296734374999,303.6224345513618L933.11215,303.37804076206135L933.5135984375,303.2136431770309L937.5280828125001,302.6683303335021L937.564578125,302.3017567496202L938.1849984375,302.3707618467123L938.3309796875,302.4992712370194L939.68130625,302.25609699630047L940.8126609375,302.4867496775664L940.84915625,302.630521945303L940.9586421875,302.7032703719404L940.9951374999999,302.75640801524867L942.4184546875,302.79927617728697L942.7469125,302.8583625317618L943.6228,302.9653653210184L944.8271453125001,303.2211489979409L945.7030328124999,303.3959256010651L945.7395281250001,303.51252518854693L947.0533593750001,303.6960616948442L948.4401812500001,303.8539749783574L949.8999937499999,304.071596504599L950.1919562500001,304.1941054342637L950.2284515624999,304.27840606811867L951.3598062499999,304.4146862183881L951.6882640624999,304.50983420916685L951.8342453125,304.59509904755157L954.1699453125,304.68758955198666L956.542140625,304.9543816824739L957.3815328125,305.12087038967604L957.9654578125,305.3261771349031L960.4471390625,305.55359073463035L960.556625,305.69276663691153L960.7391015625,305.8012087414657L963.1842875000001,305.96169559009127L963.841203125,306.0789337651063L966.5783515625,306.28265068373196L968.00166875,306.4665860650132L968.0381640625,306.58707574647156L970.8118078125,306.85700483086356L971.21325625,307.05495715551194L973.767928125,307.3432939687756L974.2423671875001,307.53351227627775L975.30073125,307.76301018866053L975.3372265625,307.8949045798132L976.833534375,308.01941074764375L977.709421875,308.1140992689752L977.92839375,308.2295302885903L978.6582999999999,308.326780980155L978.877271875,308.4833755405597L979.6436734375,308.6094930891578L979.8626453124999,308.74202872006794L982.0523640625,308.744311677499L984.2055875,308.91117542790994L985.3734375,309.04979647425L985.6289046874999,309.05803646858186L988.6945109374999,309.0366112617162L993.4389015625001,309.8378285099163L994.3512843750001,310.47752182655444L994.8257234375001,310.9331731756661L995.8110968750001,311.2696518893234L996.0665640625,311.4739151762131L996.4680125,311.66705838991584L996.6504890625,311.7954838964905L996.9059562499999,311.91346308670137L996.9424515625,311.97863553739234L997.4533859375,312.1090344842673L998.4752546875,312.19415836506715L1000.99343125,312.3042918961505L1001.1029171875,312.40920095998365L1002.6357203125,312.5451490373902L1003.91305625,312.6147283671002L1005.2633828125,312.8127408420822L1008.5844562499999,312.98086133242805L1008.6574468749999,313.0729983975319L1009.16838125,313.1597586246683L1013.0733796875,313.40824054548136L1013.3288468750001,313.5206169348511L1013.766790625,313.55279607575324L1015.5550609375001,313.67600713186226L1015.6280515625001,313.76174309357424L1016.0295,313.9507576427129L1016.0659953125,314.0488650028643L1016.2484718750001,314.08229873965803L1019.3505734375,313.67261380510536L1019.460059375,313.33231440263114L1019.4965546875,313.07381041530164L1024.8248703125,311.8572878629145L1024.9708515625,311.1595539053589L1025.0073468750002,310.6646183225506L1025.6277671875,310.0565219530065L1026.175196875,309.6056089239195L1026.54015,309.10797372226364L1026.9415984375,308.88296197438564L1027.124075,308.6950268896668L1027.3065515625,308.53396687645073L1027.4525328125,308.4047092431467L1027.6715046875,308.34590143628503L1028.5473921875,308.37037620929516L1028.9123453125,308.3773419354841L1029.8612234375,308.32219631349903L1029.9342140625,308.2521679234944L1030.262671875,308.3035850250344L1031.5035125,308.4444279456257L1032.3429046875,308.589214453835L1033.5837453125,308.87588056353474L1034.204165625,308.96020735815796L1035.080053125,308.90396833088766L1035.7734640625,309.1099900032507L1036.2843984375002,309.1584771080305L1037.48874375,308.9001113341889L1041.6127140625,309.1379628481485L1043.400984375,309.5933974954071L1045.6271984375,309.8509937593L1046.3571046875002,309.97942876613064L1046.758553125,310.1275699160449L1047.488459375,310.2285771509817L1049.678178125,310.4172971130473L1050.1526171875,310.60917262290116L1051.50294375,310.83860143639896L1052.23285,310.9894452666122L1052.6342984375,311.0933649264325L1055.7728953125,311.47825291946356L1056.1378484375,311.76806035498976L1059.312940625,312.36772837668366L1061.2836875,312.8082393445503L1062.6340140625,312.89693804575444L1062.7070046875,312.9866749150169L1063.76536875,312.6414672303402L1065.1886859375,312.5436989009878L1066.9404609375001,312.263004764628L1068.6922359375,312.32599882137504L1068.7652265625,312.37130733829866L1069.0571890625,312.3114103633798L1070.1520484375,312.41429417637335L1070.991440625,312.29082835137825L1071.502375,312.12779787522356L1073.5826078125,312.3418893816255L1077.0861578125,312.48056040202596L1078.728446875,312.98165601313093L1078.874428125,313.3411145691175L1081.064146875,313.5671170351767L1082.74293125,313.7755531504375L1083.837790625,313.8288051131076L1084.6406875,314.0690480021341L1084.93265,314.1935857116455L1087.2318546875,314.5255478666754L1089.385078125,315.01301891320435L1090.4799375,315.3938187000032L1091.0638625,315.60780869897405L1091.282834375,315.7362264495217L1092.4871796875,315.95168802758883L1093.54554375,316.13114575125024L1094.056478125,316.2668375049475L1095.1878328125001,316.31765925887544L1096.61115,316.36257363296744L1099.749746875,316.81436980765915L1102.4139046875,317.0790518735905L1103.3262875,317.2913498305981L1103.8007265625001,317.466934311631L1104.05619375,317.5782520377947L1104.129184375,317.6091920779912L1107.0123140625,317.5863289643417L1109.1655375,317.7418422953547L1113.3260031250002,317.6468714999737L1113.8734328125,317.36356990147044L1115.7711890625,317.39070068591866L1116.7565625,317.44186367142964L1119.019271875,317.6969730657283L1119.9316546875,317.99038626368446L1122.15786875,318.2265855948558L1123.1797374999999,318.47209729536235L1123.3622140625,318.58337900407867L1124.5300640625,318.61495983409344L1125.8074,318.73202164741014L1126.3913249999998,318.8326651447305L1127.0117453125,318.9525882422156L1128.508053125,318.8776186721576L1130.405809375,318.99078063481625L1131.9386124999999,319.15496082579295L1132.4495468750001,319.2761036835511L1133.033471875,319.3897712425869L1133.7998734375,319.50371543584714L1134.12833125,319.5647900765124L1134.7122562499999,319.6115447320594L1134.8217421875001,319.6923971982956L1137.0114609375,319.85606821819016L1137.04795625,319.9616712233151L1137.558890625,319.8491322738073L1141.573375,319.6840477941092L1142.0478140625,319.62962610020116L1142.4492625,319.4729106888731L1145.22290625,319.43739793090685L1145.733840625,319.41928361507183L1146.0987937500001,319.35174035675533L1146.317765625,319.4843391127733L1148.5439796875,319.50599996484533L1150.0767828125,319.5882583048244L1155.8430421875,319.48849576955536L1157.2298640625,319.3416303304833L1158.9086484375,319.52699455903064L1158.9816390624999,319.6336571500653L1160.4414515624999,319.71662449516003L1160.477946875,319.80763235266113L1160.5144421875,319.8731715665848L1161.0983671875001,319.91637387492864L1161.57280625,319.9129789862607L1161.6457968749999,319.91711142012156L1165.2588328125,319.9839742391612L1170.33168125,320.48593277808L1170.7331296875,320.81785441741994L1173.0688296875,321.04828822258565L1173.2878015625001,321.2114509320869L1173.5067734375,321.2788385360285L1173.6527546875,321.3121696379699L1173.6892500000001,321.3376732503384L1176.4263984375,321.4874268586897L1177.8862109375,321.52980589841394L1179.893453125,321.6362486969503L1183.8714421875,321.74142507782256L1184.272890625,321.8442972229648L1184.564853125,321.9634506053772L1186.316628125,321.8733321403041L1187.192515625,321.902146774956L1188.652328125,322.04544542398924L1188.7618140625,322.08028366984763L1189.89316875,322.24799454125747L1190.258121875,322.3320692714166L1190.5135890625002,322.3794984386425L1191.0245234375,322.40099180546014L1191.1705046875,322.42563537156906L1193.2507375,322.6486573006808L1193.98064375,322.7044894790735L1194.0901296875,322.73706899540343L1194.85653125,322.7266172977036L1197.995128125,322.7152554245833L1199.600921875,322.68805826214333L1201.3162015625,322.7106212766294L1201.3891921875,322.7167793292687L1202.5570421875,322.74454582328144L1203.2139578125,322.80694514645165L1204.05335,322.91265795882134L1208.213815625,323.0448434752406L1213.54213125,323.1428571428571L1214.491009375,323.2281950722465L1214.782971875,323.2637737772759L1216.096803125,323.30985166338354L1218.1040453125,323.5035816708804L1220.3667546875001,323.5196017436689L1220.84119375,323.55164484552L1221.1696515625,323.5331438982871L1224.1987625,323.63042370848933L1225.2571265625,323.7631329331414L1226.68044375,323.86467007589226L1229.0526390625,324.0406214527551L1236.89913125,324.3220075975059L1239.7822609375,324.6430292901025L1240.7311390625,324.7777846105742L1241.5340359375,324.8723409191972L1242.227446875,324.9641286918303L1242.957353125,325.06344012835535L1243.1398296875,325.0921318093829L1243.7237546875,325.14097319362L1244.1616984375,325.1660927977613L1244.7456234375,325.2313137788592L1245.730996875,325.3588200909414L1248.212678125,325.5142045115083L1249.45351875,325.59373379190754L1250.0009484375,325.70023727816385L1250.402396875,325.7524498800258L1250.4753875000001,325.80501569905925L1250.76735,325.827451024813L1250.9498265625,325.843696251243L1252.154171875,325.8858173137202L1254.2344046875,325.8920682798258L1256.8620671875,325.9318212416833L1258.0664125,325.9142400290484L1258.3218796875,325.86896267383133L1258.6503375,325.83829283828345L1260.475103125,325.80789893077963L1260.5845890625,325.7887184539343L1261.350990625,325.8257133741452L1261.7889343749998,325.84346121320607L1262.4823453125,325.8202951160438L1263.17575625,325.83115501462345L1268.13911875,325.8526887490897L1271.0952390625,326.04291917201977L1271.131734375,326.14634424378823L1271.277715625,326.2123806585409L1272.372575,326.3259870336058L1272.883509375,326.36843149609433L1273.0659859375,326.39529298416255L1273.540425,326.4397236015861L1274.2338359374999,326.38736147169186" style="fill: none;" fill="none"></path></g></g></g></g><g opacity="0.2"><g><g><g><path stroke="rgb(255, 112, 67)" stroke-width="2px" d="M217.001128125,-1.5587923198591511L217.95000624999997,3.0388728409047303L217.98650156250002,3.5289437086824478L218.2054734375,5.384585108386432L219.190846875,13.513760335842505L219.5193046875,12.312692881880707L221.307575,13.750422707943699L221.4170609375,13.44013813083643L222.402434375,17.879083323571024L222.8038828125,20.749434733479802L224.884115625,31.061879796220182L225.5775265625,30.944972000302812L228.533646875,48.6597879990008L230.5408890625,52.08218698793871L230.650375,52.04099837331705L231.16130937499997,52.287192290755684L231.307290625,51.237489139051945L233.059065625,55.30980547851459L233.3145328125,56.91319064600066L234.1174296875,60.28086183113828L234.5553734375,60.789396055451846L234.9203265625,61.220943223778306L236.0151859375,63.81006343607464L236.92756875,65.82965073286022L238.09541875,65.85239693090728L239.1537828125,66.7537132815288L239.73770781250002,67.30577549707323L240.32163281249998,70.93278045101266L241.08803437499998,72.76149275333375L242.3653703125,76.07050298203609L244.22663125,79.26920588263948L244.883546875,78.72582135534407L245.2120046875,82.56529919098256L245.7229390625,81.95196176572989L245.7959296875,82.04811273031612L245.905415625,82.13836561992787L247.51120937500002,87.63028107702218L249.1534984375,91.6119727969853L249.8104140625,93.20129236946457L250.138871875,93.9054816067362L250.6133109375,96.2139205550244L250.72279687500003,97.07797713439533L251.01475937499998,96.21161584860835L252.47457187499998,99.00378335151146L253.0949921875,100.36212140308334L253.56943124999998,101.8645575611223L255.540178125,103.64887266399154L256.8175140625,104.2645992422004L258.313821875,104.81631418814487L259.0072328125,105.93471130136601L262.32830625,112.67846818865604L262.76625,112.04297291995039L263.20419375,111.95737447390775L263.9341,112.26163160845061L264.11657656250003,110.44990210115014L264.153071875,109.8773717203926L264.882978125,111.09069333251199L265.0654546875,111.36278399841598L266.70774375,112.73340611535275L267.1456875,114.79045802022807L268.42302343750004,114.51065048108404L269.700359375,115.04654670777393L269.7368546875,114.98491375229389L269.8098453125,115.21897001698278L271.4156390625,111.98474829921753L272.036059375,111.40406033164987L272.10905,111.02898915786687L272.2915265625,110.76145467283061L273.203909375,109.64699618747062L273.2404046875,109.6514333189719L273.6053578125,109.33452921010462L273.6783484375,109.85754069783769L273.860825,109.83673043502614L274.9191890625,110.2598951625028L275.46661875,112.20952064826793L275.685590625,111.34440143441799L280.50297187499996,115.65970813190319L282.5102140625,111.3496039835349L283.02114843749996,110.19592058951838L284.298484375,108.18828869251831L288.2034828125,105.51211074873407L290.79465,107.3159685651695L292.40044375,109.16345161685632L293.3858171875,111.69568576809377L293.495303125,111.92305787035872L295.61203125000003,114.59141980783016L297.874740625,117.78976061526669L299.1520765625,115.80038651964679L300.3929171875,118.57514208302308L300.9038515625,119.1348417893019L300.9768421875,119.47120952836656L301.0133375,119.68860463612856L303.130065625,121.7490314324429L305.7212328125,124.88669347487945L306.8890828125,126.85442039506341L308.385390625,124.69907656499475L309.5167453125,125.90347962227855L313.8961828125,125.97397020095733L314.5530984375,127.09420220398621L314.6260890625,127.79320972978519L316.4508546875,126.36709229850277L318.4945921875,127.66594197801629L319.042021875,127.1408024094062L320.939778125,128.0544525953327L321.70617968749997,130.2242421924631L321.88865625,129.6831615002869L321.961646875,130.10088994684398L323.53094531249997,133.8406142870299L325.8666453125,138.26056967768616L326.8885140625,140.07360919822554L327.91038281249996,140.49278691544458L329.8081390625,143.36261754332858L332.0708484375,145.83825751308825L332.472296875,145.65149071599333L335.1364546875,148.44628548203463L335.6473890625,149.25439958828184L335.8663609375,149.5405395227218L336.77874375,151.3604501079259L336.9612203125,151.6092841041609L338.092575,152.8398817656709L339.5888828125,154.64682812841556L340.063321875,154.99535741542044L340.13631250000003,155.1055253065955L343.0924328125,153.05780319412668L344.296778125,153.31934980344352L346.4500015625,156.37450992551982L347.07042187499997,158.02945634062203L347.83682343749996,157.91346289896393L351.41336406249997,160.55476323313582L352.7271953125,160.48006604941665L352.8731765625,159.63385942989575L353.1651390625,160.7562438074613L355.8657921875,163.9124529675753L357.2526140625,165.07343680304032L357.6905578125,165.8087721283633L357.7635484375,166.1510042450762L359.1503703125,168.7454245885269L359.5883140625,170.13239512892423L361.12111718750003,172.10825601412066L363.6027984375,174.60568766862542L363.93125625,174.33943369439888L364.04074218750003,174.66790175523562L366.81438593750005,175.47411494828276L366.88737656250004,175.76055822855963L368.85812343749996,176.64368927027434L369.8799921875,179.14383671515841L372.2886828125,177.86851001890358L373.712,177.07252966694222L376.996578125,180.34793607977596L377.580503125,181.3601180075979L378.0914375,180.905289301433L380.31765156250003,182.43582632627786L381.1205484375,182.46878655346384L383.78470625000006,183.9347758467506L383.85769687500004,184.19686456507395L385.025546875,187.29319969955745L386.41236875,185.73426276302646L389.0765265625,188.40543460613333L389.2225078125,188.82805679515727L389.7699375,189.2143960819177L391.2662453125,189.68260969913325L391.37573125,190.064077524002L394.47783281249997,190.50689850469251L395.098253125,191.54444094403627L395.20773906249997,191.1719773989923L396.4485796875,188.5880847882921L396.5215703125,188.39803657266762L396.7770375,190.53111997676208L398.09086874999997,192.44650475509528L398.8572703125,195.03367644210135L399.7331578125,195.5036438253228L400.13460625,195.81514393873454L401.1199796875,195.2240779705952L401.8498859375,191.77023516673052L402.0323625,190.72519852201148L405.90086562500005,197.1316502630912L406.26581875,197.06778227443365L408.09058437500005,200.7586581442564L408.78399531250005,202.86895275575696L409.258434375,203.32796158462875L409.47740625000006,202.73332774895746L409.9518453125,203.1345517463042L412.032078125,206.8824094497729L412.8714703125,207.46084037570546L413.05394687499995,207.20967175012615L413.92983437500004,209.2719894770124L414.73273125000003,210.9931758768423L415.20717031249995,211.7599425848124L416.0830578125,212.2114077575328L419.5866078125,217.3634552081098L420.4624953125,216.38128105921552L422.4332421875,220.55632929903697L422.7981953125,220.35249469464023L423.49160625,220.86019062004326L425.462353125,222.3974610110914L426.8856703125,223.78351595789655L426.99515625,224.0919355771858L427.4331,223.78241312239592L428.4184734375,224.3443319705837L428.56445468749996,224.4764339249252L432.35996718750005,228.34124898791606L432.6519296875,227.7575356398377L433.19935937500003,228.26390549089953L436.73940468750004,231.6856028594949L437.6882828125,231.20051200308146L438.4911796875,232.8654677538668L441.84874843750003,236.60085854290165L442.1407109375,237.27048714543588L443.63701875,237.66238397936522L445.86323281250003,234.65834002618624L446.9945875,235.35427950546924L449.33028750000005,237.67972141325552L449.987203125,237.3697389009349L450.35215625,237.93619779070053L450.3886515625,238.0134383278523L451.0820625,239.90944741024023L451.9214546875,241.4506189754266L452.614865625,240.55955170423667L454.40313593750005,242.7651236417743L454.7680890625,243.72323995884355L454.877575,243.77517514595053L455.4250046875,244.8726628960576L456.62935000000004,246.59474437304564L460.20589062499994,243.08127201120584L461.48322656249996,242.77444549693953L463.05252499999995,242.11332357218785L463.271496875,242.13385870893677L465.7166828125,240.30575420142648L466.4465890625,240.22246499860108L466.7385515625,240.3148870865082L467.1035046875,240.68073263340855L468.380840625,241.69748909638145L470.82602656250003,242.42220570214317L471.99387656249996,243.03696031008158L474.14709999999997,243.48252804520033L475.4244359375,242.32669882761985L475.82588437500004,243.58355275683294L476.263828125,243.63171032310402L476.8842484375,243.651343602429L481.0447140625,247.00047092667384L482.32205000000005,248.54799039848916L482.541021875,248.78656950915408L485.05919843749996,249.65087860611285L486.6649921875,250.8389996006931L486.8839640625,250.55196648094142L487.72335625,250.25070245609595L487.90583281249997,250.3864037255466L488.234290625,250.61001886740738L491.51886875,252.56732823760132L491.6283546875,252.07804920907483L492.6502234375,252.66364607632164L493.0151765625,252.81200231793167L495.1319046875,252.62312070556345L496.40924062500005,253.8596464401199L497.6135859375,254.3726354746324L497.65008124999997,254.36729011672344L499.6573234375,254.54740504994476L499.83979999999997,254.785705151172L504.36521874999994,256.60191573611604L504.47470468750004,256.5059528487437L506.51844218749994,260.4978482544971L506.773909375,260.32891145327545L507.4673203125,260.5787190454288L507.57680625,260.5351980929616L508.3432078125,260.6319541541337L508.59867499999996,260.2141726034066L509.4380671875,259.95898014726924L510.05848749999996,260.00302535284936L510.71540312499997,259.1750959940914L510.934375,258.7304686060379L511.299328125,258.92969335511026L512.9781125,256.9232639052526L513.270075,257.0790345938584L519.2188109375,254.74336315643455L519.474278125,254.3851709223938L520.4596515625,252.810763658356L522.17493125,252.20686067112226L522.5033890625,251.31810092624255L523.6712390625,252.72991909940038L524.437640625,253.9734598946876L526.0069390625,254.53362323669063L526.116425,254.43373440654804L526.84633125,255.98440734401413L527.1017984375,256.48014139523997L528.0506765625,256.4569385914661L530.6053484375,258.63390002512824L530.9338062500001,259.1956050422257L531.1892734375,259.7519244253142L531.6637125000001,259.24376638029906L532.4666093750001,258.97684394659404L533.8534312500001,258.6569307313386L534.948290625,260.4963253799837L535.7876828125,259.02612487993264L536.4445984375,259.11133300974313L538.9992703125,259.2729387381809L541.6269328125,259.87215540639784L541.73641875,260.00226461076704L543.19623125,261.8767403213311L544.07211875,261.10257758213504L546.4443140625,260.79374790275364L549.2909484375,265.700550748973L549.473425,266.5362957098879L549.5829109375001,266.4740464309356L550.5317890625,267.4584383986457L552.1375828125,268.35380059958686L552.7215078125,268.19984943988584L553.5973953125,269.7598856823017L554.217815625,269.63743865359464L556.8089828125001,271.28951381787374L557.5388890625001,270.80541397147255L557.79435625,271.73591361090644L561.9183265625,266.43651553817205L562.0278125,265.44095355893063L562.7942140625,264.59884071388865L564.9474375,266.1407476948257L565.3123906249999,266.54911602360374L565.458371875,266.43705442488596L566.5167359375,264.1113329641492L567.6845859375001,264.1725061639723L567.72108125,264.0755368166471L569.6188375,257.51250057085167L570.2392578125,257.1726774500762L570.7501921875,257.4080857799519L571.3341171874999,256.8397986426052L571.9545375,258.32310031517227L573.41435,260.69951468373233L575.093134375,262.58225799846747L575.1296296875,262.744444651852L575.9325265625,264.16564491578674L576.18799375,264.02820828557407L577.2098625,264.01127065884606L577.574815625,264.24978745674224L577.7572921875,265.03499412984587L578.1587406250001,265.57260046881476L578.4871984375,265.9596956208394L578.9981328125,266.313393988098L580.3849546875,267.16716104847563L580.494440625,267.21634527118704L581.7352812500001,267.49341764221015L581.8812625,267.6389509302213L582.7206546875,268.07400970469115L582.9396265624999,268.0538950486202L583.0126171874999,267.988730240489L584.4724296874999,269.4138371325277L584.6914015625,269.22739250254176L585.165840625,269.35590007489526L585.3483171875,269.250143201689L587.6840171875,270.7435642397945L588.377428125,270.9404680587075L588.7058859374999,270.8263296264339L590.348175,271.2124636733555L591.1875671875,271.51719427165494L591.2605578125,271.4137725112531L591.297053125,271.29413562176137L593.4502765625,273.1239325203275L593.8882203125,273.128492071668L599.2530312499999,275.31678760444913L601.1872828125,275.38749750472385L601.9171890625,274.17395439595833L603.04854375,273.42186495558633L603.3770015625,273.534446030074L603.997421875,274.77485470705915L604.2893843749999,274.1926187178921L604.6178421875001,273.64119934923605L605.7491968749999,276.41573194581576L607.1725140625,274.8894769413148L607.6104578125,274.2882151245032L608.44985,275.0428397282918L608.960784375,274.7297474271153L609.033775,274.4913354218032L611.6614374999999,275.44087844514536L615.821903125,276.45141245770856L618.5590515625,276.8854129757958L619.325453125,277.07620241884086L619.5079296875,276.8885915948457L620.0188640625,277.1180508562678L620.56629375,277.1606485076381L620.8217609375,277.47220401339786L621.5151718750001,278.0426426870151L621.953115625,277.2361939687164L625.4931609375,277.22225417412056L626.4420390624999,276.29376940671546L626.5880203125,275.6884015439373L627.1719453124999,276.60776788177657L628.7047484374999,277.32357128038865L631.0404484375,278.33853428312534L631.149934375,278.3769388812019L631.7338593750001,277.7291080491774L634.9089515625,277.2618362748429L635.237409375,276.854255648832L636.3687640625,276.6827262620864L637.1716609375,276.2452037408671L640.638715625,278.4313238234058L643.266378125,279.6357243262034L644.9451625,278.84379617007005L645.96703125,278.6830138668639L648.1202546875,279.8278803141378L648.7041796875001,280.15550355884164L649.835534375,281.1326036366964L650.8938984375001,281.0991443580242L651.9887578125,280.87154959030477L652.463196875,279.8792544428113L653.1566078125,280.5089242688126L654.72590625,282.1788335086027L655.4558125,281.86622151193563L657.572540625,282.9309349387673L658.1929609375001,282.7728617113295L659.178334375,283.0852039957582L659.9447359375,283.4044785441256L660.3826796875001,283.6811819027572L660.930109375,284.533434456731L661.076090625,284.4746921695697L661.6965109375,284.7662375819726L663.0103421875,284.9581923346056L664.4701546875,286.20484531824826L664.50665,286.18532306107375L664.65263125,286.30705922044035L665.6745000000001,286.92342669401665L668.375153125,287.5855235894693L669.688984375,288.0355170694491L671.6232359375,289.3393970615323L671.7692171875,289.6136876673778L672.4991234375,289.5710628883925L674.28739375,290.95976056947126L675.3457578125,290.22961058154374L676.8785609375,289.75444157258477L678.739821875,289.8619100983857L679.2872515624999,289.8158495462065L679.5792140625,289.72333835896984L679.7981859375,289.71879760001923L681.7324375000001,288.9667629061804L681.8419234375,288.9009573916468L683.3017359375,290.59422035715096L684.21411875,291.2324961850587L685.2724828125,291.25836687445326L686.5133234375,291.5884677171152L687.790659375,291.1098891572068L688.6300515625001,291.87321992977223L689.2139765625001,291.9658168347898L691.148228125,292.66304130562185L691.878134375,293.1002132982803L691.9876203125,293.1257690324352L692.3525734375,292.9910489050636L692.5715453125,293.232088983887L693.3744421875,293.1868327129474L696.3670578125,293.7587796640731L701.5128968749999,294.5100868989664L701.73186875,294.8910204891723L703.9215875,295.8187835413977L703.9580828125,295.8376809661921L704.1770546875,296.1435045601893L704.5055125,295.98652632588613L705.1259328125,295.8755997245278L705.5638765625,295.90506683164693L705.7828484375,296.026041034623L707.936071875,296.39913374287437L709.7608375,297.04812381533947L711.4761171875,297.7506242975539L712.7899484375,297.9900805199837L713.6658359375,297.841172799614L713.775321875,298.02570205397876L716.5124703125,296.9467938024904L716.7314421875,296.9071711066546L717.8263015625,294.8103341185682L718.154759375,294.62085565449877L718.300740625,294.2336288145277L718.5197125000001,293.395552657295L720.6729359374999,292.36789931293606L721.87728125,291.8885104401129L721.9137765625,291.69049342878264L722.2057390625,291.1980038557085L722.3517203125,291.4667072558942L722.9721406250001,291.1561002443324L725.307840625,290.50447347289247L726.0012515625,290.6539122862429L727.205596875,290.97196426345846L727.2420921875,290.9136870564747L728.1179796875,290.8257796852546L730.9281187500001,292.0749764467414L733.2273234375,293.8266360338871L734.7601265625,294.0288385256861L734.9061078125001,293.97221583422674L736.5119015625,293.35525858584367L737.2053125,294.00279459223134L739.6504984375,293.9788174596172L741.7672265625001,294.9866914074124L742.387646875,295.1843756012789L742.60661875,295.3874108378745L745.5627390625,295.7837945673571L746.5846078125,296.28307899475294L747.205028125,296.0499057382657L747.27801875,296.2177608370333L748.44586875,295.7183740982206L749.5772234375,295.331214300487L751.730446875,294.1059245702444L756.9492765625,294.6848458863749L757.8251640624999,294.4899385040444L758.153621875,294.1699349877794L758.37259375,294.1380503716556L760.0513781249999,293.74080481933845L760.1608640625,293.95293792888026L760.854275,294.608488326061L761.5476859375,294.10090128816626L765.67165625,292.1369711501925L766.1825906250001,292.32485523119664L768.4817953125,293.44268758121984L769.9051125,293.8391879652828L770.6715140625,294.50964095052063L772.8247375,296.02709805203943L773.2991765625,295.92392662204327L773.6641296875,295.82597667694296L773.8101109375,295.75738162506394L775.525390625,296.3116327448574L778.153053125,297.01077449327914L778.9559499999999,296.98234674741565L779.5763703125,297.3140423746184L781.2551546875,297.47523785469616L782.4959953125,298.4508114993455L784.8681906249999,299.9201585795737L786.8389375,300.72247348412174L787.7878156249999,301.3454672651589L787.9702921875,301.39017903562103L790.5614593749999,302.32792379364287L790.707440625,302.3014363832118L791.8752906249999,302.48609377012883L793.6635609375,302.6791690208576L795.9262703124999,302.5187207917863L795.962765625,302.53242225855536L796.8751484375,303.33363506657645L797.20360625,303.11754742419L797.714540625,303.45953712807744L799.24734375,303.7862772488926L800.1597265624999,303.69085286924445L805.3420609375,304.9117304477779L806.473415625,305.0615213634888L807.7142562500001,305.3938215583206L808.5536484375,304.9441320332102L809.9404703125,304.8349084187183L810.3054234374999,304.88333932623055L811.6557500000001,303.3173997473515L811.9477125000001,303.0756170519596L812.458646875,303.8622906380972L812.8600953125,303.2406388292615L813.5170109375,302.593280711905L813.5900015625,302.5072414514889L814.4293937499999,302.6043915129566L814.4658890625,302.60500878636844L814.5023843749999,302.7009004704408L814.6118703125,302.70085931156774L815.30528125,302.89372297724293L816.5826171875,303.7970001405813L817.2030374999999,304.091715340772L817.7139718750001,304.00894456171534L818.4803734375,303.9867479705186L819.1372890625,304.1389655523917L819.5022421875,304.0804501786689L821.2905125,304.55610175443735L822.750325,303.7479240287469L823.2612593749999,303.2985278308859L823.4802312500001,303.4517884632961L823.991165625,303.28950415573826L824.3196234375,303.27108643631055L824.5750906249999,303.3206550134472L824.6115859375,303.2481372690734L824.7575671875001,303.28880369409586L825.66995,302.9721230711212L826.0349031249999,302.74860570811L826.764809375,302.92678633815825L827.27574375,302.9880597729217L828.589575,303.3332229966142L829.2829859375,302.20133883761457L831.07125625,302.5673563962848L831.1077515625,302.28354577566984L832.2756015625,301.50704652071L833.6624234375,301.96173921567015L837.713403125,301.38726383060566L838.0418609375,301.63753592313435L838.6257859374999,301.8372945097759L838.735271875,302.12124123382625L839.0637296875001,302.2494935633758L840.0855984374999,301.5111944249497L841.3264390625,301.4679510047271L841.362934375,301.2895930078753L841.8008781249999,301.4951368732976L843.2241953125001,302.1853019208138L844.136578125,302.05640703825884L844.7569984375001,302.3159138134061L846.3627921875001,302.05813365683485L847.2386796874999,302.2550865333492L848.0415765625,303.03158953796833L849.0634453124999,302.09131046903514L851.0341921875,302.79956728430557L852.6399859375,303.2524633392902L855.8880687500001,303.5111015467852L855.9245640624999,303.3233334116232L859.0996562500001,303.44235007996747L859.39161875,303.6351895433362L861.0339078125,303.6781528805424L863.2236265624999,303.3197484816818L865.449840625,303.8868745717619L865.7053078125,304.3767235200663L866.763671875,304.172270144561L868.1139984375,304.5668812072994L868.7344187499999,303.9257326633511L870.2672218749999,304.2936201927291L872.0189968750001,302.8843766647492L873.4788093750001,302.8133170289451L874.3911921875,303.10210118230583L875.0846031250001,303.5525297579792L875.2670796875,303.52441593956326L876.1064718749999,303.43031534953013L876.90936875,303.2998463713569L877.6757703125,303.6569181754186L879.3910500000001,304.7786315272846L880.1574515625001,304.88709992780895L881.507778125,305.5791232424L882.091703125,305.45070023559674L884.20843125,305.02022552410386L885.814225,304.9013987173778L885.9602062499999,305.04560617741197L886.8725890625,305.29898189927417L893.624221875,306.59425659612623L894.1716515625,306.5136721925536L894.2811375,306.47893837686456L895.084034375,306.29776181346415L895.30300625,305.910830543583L896.1423984374999,306.2069062817652L897.05478125,306.72311708118286L897.6022109374999,307.25663057604845L899.0620234374999,308.11101479762306L899.2809953125001,307.99233892456533L899.7919296875,308.38338179456184L900.1933781250001,308.28913978347407L900.5218359374999,308.4660754130346L902.2006203125001,308.63062669974954L902.4560875,308.7743743650587L902.60206875,308.85666981270015L902.8210406250001,308.7175199725508L904.9742640625,307.3834484761478L905.9596375000001,307.4164965795336L906.7990296875,307.2362511574784L909.3537015625,307.41442063425495L910.1565984375,307.1375193794248L911.3609437499999,306.2565372815829L911.6529062500001,306.4616137505492L911.9813640625,306.00325140764255L912.23683125,305.94759824461767L913.69664375,305.1664079414371L914.1710828125,304.1025268157028L914.3535593749999,303.9750311778809L914.5725312499999,303.9562188300512L914.6820171875,303.98819195899546L917.4556609375,304.57848691183545L917.4921562499999,304.4290360319218L917.5651468750001,304.2530020457519L919.0979500000001,304.80912444709577L919.2074359375,304.76363360749247L920.3387906249999,304.87003279195335L921.3241640625,305.08971512746234L921.43365,304.9963340746184L921.6161265625001,304.9879847163484L923.6598640625,304.2922166693345L924.20729375,304.3459246738656L924.5357515625001,304.5825758136333L924.6087421875001,304.69381405157094L926.0320593749999,305.0596611227848L926.3970125000001,305.35915952079546L926.907946875,305.17128688156265L928.4772453124999,305.1461897514706L929.2801421875,304.9784368456687L930.119534375,305.0131158476166L931.6158421875001,304.34687420996846L932.09028125,304.65808149055295L932.1267765625,304.5662203917524L932.8566828124999,303.177812576795L932.9296734374999,302.95803986468894L933.11215,303.0116568364616L933.5135984375,302.9671403743304L937.5280828125001,301.8513896827578L937.564578125,301.7523613968488L938.1849984375,302.47428598841043L938.3309796875,302.6920925429321L939.68130625,301.89154033584805L940.8126609375,302.8329130769541L940.84915625,302.8462519691871L940.9586421875,302.81241134639794L940.9951374999999,302.8361242617116L942.4184546875,302.86358478624214L942.7469125,302.94700415780017L943.6228,303.125909173674L944.8271453125001,303.60505127175134L945.7030328124999,303.65819635740877L945.7395281250001,303.68747167431786L947.0533593750001,303.97148318506527L948.4401812500001,304.09093131091095L949.8999937499999,304.3981929211899L950.1919562500001,304.37792082963284L950.2284515624999,304.4048816393483L951.3598062499999,304.61917079476007L951.6882640624999,304.6525875603214L951.8342453125,304.7230214920585L954.1699453125,304.8263549458488L956.542140625,305.35481658186825L957.3815328125,305.37069949923966L957.9654578125,305.63428332582373L960.4471390625,305.89489036817247L960.556625,305.9015976055607L960.7391015625,305.96391264157415L963.1842875000001,306.2025151102457L963.841203125,306.254838649625L966.5783515625,306.5883698806643L968.00166875,306.74260637575287L968.0381640625,306.7678605692041L970.8118078125,307.26215099868045L971.21325625,307.35202143539317L973.767928125,307.77608736136216L974.2423671875001,307.8189651244488L975.30073125,308.1074395926439L975.3372265625,308.092806441628L976.833534375,308.20622370986626L977.709421875,308.2561631137325L977.92839375,308.40272298299004L978.6582999999999,308.47268978426257L978.877271875,308.71835235103765L979.6436734375,308.798724522008L979.8626453124999,308.9408930291265L982.0523640625,308.7477361316985L984.2055875,309.1615675355948L985.3734375,309.2577946248233L985.6289046874999,309.07039669526307L988.6945109374999,309.00447504132285L993.4389015625001,311.0418823183339L994.3512843750001,311.43848142320525L994.8257234375001,311.61737014070366L995.8110968750001,311.7747624414706L996.0665640625,311.78045469821507L996.4680125,311.95690248400894L996.6504890625,311.98817930211635L996.9059562499999,312.0904800980032L996.9424515625,312.07640892780614L997.4533859375,312.30469182037575L998.4752546875,312.32186928998L1000.99343125,312.4695342171273L1001.1029171875,312.5666026870963L1002.6357203125,312.7491351911907L1003.91305625,312.71911413343844L1005.2633828125,313.1098954300213L1008.5844562499999,313.23314000910744L1008.6574468749999,313.21123340629566L1009.16838125,313.289925043611L1013.0733796875,313.78117741969623L1013.3288468750001,313.6892252725711L1013.766790625,313.60106837407346L1015.5550609375001,313.8608763147546L1015.6280515625001,313.890372502207L1016.0295,314.23440327102105L1016.0659953125,314.19605938974104L1016.2484718750001,314.1324532169763L1019.3505734375,313.0586671758174L1019.460059375,312.82226607574466L1019.4965546875,312.68628574842484L1024.8248703125,310.0376147934026L1024.9708515625,310.1146363335973L1025.0073468750002,309.9230623949969L1025.6277671875,309.1456563057516L1026.175196875,308.92994285357486L1026.54015,308.36237763073365L1026.9415984375,308.5456196250901L1027.124075,308.413246543541L1027.3065515625,308.292466671297L1027.4525328125,308.2108806451703L1027.6715046875,308.2577017030775L1028.5473921875,308.40709044376007L1028.9123453125,308.387790692835L1029.8612234375,308.2394884124318L1029.9342140625,308.1471423216062L1030.262671875,308.38071983563157L1031.5035125,308.65576105943387L1032.3429046875,308.80646685269187L1033.5837453125,309.30616456977214L1034.204165625,309.0867221858242L1035.080053125,308.81962074364867L1035.7734640625,309.4191696042284L1036.2843984375002,309.2312159094005L1037.48874375,308.5127937403371L1041.6127140625,309.494936188762L1043.400984375,310.27726872265373L1045.6271984375,310.2376181397856L1046.3571046875002,310.17213843059704L1046.758553125,310.3498576829967L1047.488459375,310.3801233507559L1049.678178125,310.7005004750476L1050.1526171875,310.8971134694065L1051.50294375,311.18292708212203L1052.23285,311.2157898544642L1052.6342984375,311.24928183158784L1055.7728953125,312.05609850869024L1056.1378484375,312.2030626290923L1059.312940625,313.2684778153901L1061.2836875,313.4696786630627L1062.6340140625,313.0300133542735L1062.7070046875,313.1213081174777L1063.76536875,312.12406811969197L1065.1886859375,312.3970795075607L1066.9404609375001,311.8422362760827L1068.6922359375,312.42050365358045L1068.7652265625,312.43927722503685L1069.0571890625,312.22157732581235L1070.1520484375,312.5686565690156L1070.991440625,312.1056823982799L1071.502375,311.883344186305L1073.5826078125,312.6631854856729L1077.0861578125,312.6886335617125L1078.728446875,313.73417023634045L1078.874428125,313.880750349896L1081.064146875,313.90629775015816L1082.74293125,314.0883578845193L1083.837790625,313.9086928807491L1084.6406875,314.42961236894183L1084.93265,314.38044601361037L1087.2318546875,315.0238731107699L1089.385078125,315.7450495519389L1090.4799375,315.9655211220451L1091.0638625,315.9289523912446L1091.282834375,315.92891021420405L1092.4871796875,316.27504127922197L1093.54554375,316.40044393576534L1094.056478125,316.4704389318909L1095.1878328125001,316.39390083718575L1096.61115,316.4299521822649L1099.749746875,317.4927718733153L1102.4139046875,317.47631778795096L1103.3262875,317.6099529595759L1103.8007265625001,317.7304178658781L1104.05619375,317.7452715600975L1104.129184375,317.6556054543196L1107.0123140625,317.5520361043334L1109.1655375,317.9751960921995L1113.3260031250002,317.5044465405451L1113.8734328125,316.93889530816165L1115.7711890625,317.4313994123419L1116.7565625,317.518617217676L1119.019271875,318.0798627212683L1119.9316546875,318.43080447335745L1122.15786875,318.58107794605115L1123.1797374999999,318.8405737522484L1123.3622140625,318.75034447242854L1124.5300640625,318.66233453393176L1125.8074,318.90766184619275L1126.3913249999998,318.9836654839279L1127.0117453125,319.1325227169697L1128.508053125,318.7651837811525L1130.405809375,319.1605679464188L1131.9386124999999,319.4013245153486L1132.4495468750001,319.45786881765315L1133.033471875,319.5603173461566L1133.7998734375,319.6746767089396L1134.12833125,319.6564149595553L1134.7122562499999,319.68168428795843L1134.8217421875001,319.81369854498536L1137.0114609375,320.1016675725632L1137.04795625,320.12011436855454L1137.558890625,319.68036770558575L1141.573375,319.4365154328401L1142.0478140625,319.54800381656617L1142.4492625,319.2379226073042L1145.22290625,319.38413316187973L1145.733840625,319.3921132778168L1146.0987937500001,319.2504412685073L1146.317765625,319.6832981674934L1148.5439796875,319.53849286819644L1150.0767828125,319.7116692566467L1155.8430421875,319.33888643117837L1157.2298640625,319.12140685564174L1158.9086484375,319.80515996963317L1158.9816390624999,319.79369045351496L1160.4414515624999,319.84109936054125L1160.477946875,319.94417283344893L1160.5144421875,319.97149526793976L1161.0983671875001,319.9811838029753L1161.57280625,319.9078866931788L1161.6457968749999,319.9233101300636L1165.2588328125,320.0842839553508L1170.33168125,321.2397443966537L1170.7331296875,321.3161187946987L1173.0688296875,321.3941229579626L1173.2878015625001,321.4562872450827L1173.5067734375,321.3799356736602L1173.6527546875,321.3621701392717L1173.6892500000001,321.37593092196124L1176.4263984375,321.7121349779915L1177.8862109375,321.5933806794505L1179.893453125,321.79595214935097L1183.8714421875,321.8992279750904L1184.272890625,321.99864210551164L1184.564853125,322.14222986984254L1186.316628125,321.73818256657523L1187.192515625,321.94537160301513L1188.652328125,322.26046454863217L1188.7618140625,322.1325452429371L1189.89316875,322.4996583127563L1190.258121875,322.45820585531277L1190.5135890625002,322.4506499821427L1191.0245234375,322.43323345589295L1191.1705046875,322.46260282440204L1193.2507375,322.98336257076517L1193.98064375,322.78824854539886L1194.0901296875,322.7859419466829L1194.85653125,322.71094012951517L1197.995128125,322.6982130620308L1199.600921875,322.64726508038314L1201.3162015625,322.7444675618059L1201.3891921875,322.72601653957986L1202.5570421875,322.78619823494375L1203.2139578125,322.90055761992187L1204.05335,323.07126589533163L1208.213815625,323.2431822913778L1213.54213125,323.2899109272624L1214.491009375,323.35622719646483L1214.782971875,323.3171462197474L1216.096803125,323.37897584747327L1218.1040453125,323.79430674254525L1220.3667546875001,323.54363274182776L1220.84119375,323.59971305499823L1221.1696515625,323.50539366296687L1224.1987625,323.77637621018044L1225.2571265625,323.96225779237767L1226.68044375,324.01701150928875L1229.0526390625,324.304655797779L1236.89913125,324.7443612566543L1239.7822609375,325.1249190659609L1240.7311390625,324.9799805100317L1241.5340359375,325.0142063581968L1242.227446875,325.10183953928987L1242.957353125,325.2124414534472L1243.1398296875,325.1351721825121L1243.7237546875,325.2142435336317L1244.1616984375,325.2037743897034L1244.7456234375,325.32915998680755L1245.730996875,325.550135889597L1248.212678125,325.747364803785L1249.45351875,325.7130496245688L1250.0009484375,325.8600318069248L1250.402396875,325.8307782267015L1250.4753875000001,325.88387399970816L1250.76735,325.8611057569872L1250.9498265625,325.86806500502877L1252.154171875,325.9490050533681L1254.2344046875,325.90144486433L1256.8620671875,325.9914561587316L1258.0664125,325.8878692806856L1258.3218796875,325.8010537409958L1258.6503375,325.79229134283463L1260.475103125,325.76231126904247L1260.5845890625,325.75994901288027L1261.350990625,325.8812104954383L1261.7889343749998,325.870084062871L1262.4823453125,325.7855478290677L1263.17575625,325.84744527100713L1268.13911875,325.88499095701195L1271.0952390625,326.32839020930936L1271.131734375,326.301518911523L1271.277715625,326.31145038779005L1272.372575,326.49644131303404L1272.883509375,326.4321044305021L1273.0659859375,326.43558771564886L1273.540425,326.50637636614954L1274.2338359374999,326.308827772456" style="fill: none;" fill="none"></path></g></g></g></g></g></g><g transform="translate(53, 377)" clip-path="url(#clip_1)"><clipPath id="clip_1"><rect width="1459" height="23"></rect></clipPath><g><g><line x1="0" y1="0" x2="0" y2="5" style="visibility: inherit;" fill="rgb(0, 0, 0)" stroke="rgb(204, 204, 204)" stroke-width="1px"></line><line x1="182.4765625" y1="0" x2="182.4765625" y2="5" style="visibility: inherit;" fill="rgb(0, 0, 0)" stroke="rgb(204, 204, 204)" stroke-width="1px"></line><line x1="364.953125" y1="0" x2="364.953125" y2="5" style="visibility: inherit;" fill="rgb(0, 0, 0)" stroke="rgb(204, 204, 204)" stroke-width="1px"></line><line x1="547.4296875" y1="0" x2="547.4296875" y2="5" style="visibility: inherit;" fill="rgb(0, 0, 0)" stroke="rgb(204, 204, 204)" stroke-width="1px"></line><line x1="729.90625" y1="0" x2="729.90625" y2="5" style="visibility: inherit;" fill="rgb(0, 0, 0)" stroke="rgb(204, 204, 204)" stroke-width="1px"></line><line x1="912.3828125" y1="0" x2="912.3828125" y2="5" style="visibility: inherit;" fill="rgb(0, 0, 0)" stroke="rgb(204, 204, 204)" stroke-width="1px"></line><line x1="1094.859375" y1="0" x2="1094.859375" y2="5" style="visibility: inherit;" fill="rgb(0, 0, 0)" stroke="rgb(204, 204, 204)" stroke-width="1px"></line><line x1="1277.3359375" y1="0" x2="1277.3359375" y2="5" style="visibility: inherit;" fill="rgb(0, 0, 0)" stroke="rgb(204, 204, 204)" stroke-width="1px"></line><line x1="1459.8125" y1="0" x2="1459.8125" y2="5" style="visibility: inherit;" fill="rgb(0, 0, 0)" stroke="rgb(204, 204, 204)" stroke-width="1px"></line></g><g transform="translate(0, 8)"><text x="0" y="0" dx="0em" dy="0.95em" style="text-anchor: middle; visibility: hidden; font-family: &quot;Helvetica Neue&quot;, sans-serif; font-size: 12px; font-weight: 200;" fill="rgb(50, 49, 63)" stroke="none" stroke-width="1px">-5k</text><text x="182.4765625" y="0" dx="0em" dy="0.95em" style="text-anchor: middle; visibility: inherit; font-family: &quot;Helvetica Neue&quot;, sans-serif; font-size: 12px; font-weight: 200;" fill="rgb(50, 49, 63)" stroke="none" stroke-width="1px">0</text><text x="364.953125" y="0" dx="0em" dy="0.95em" style="text-anchor: middle; visibility: inherit; font-family: &quot;Helvetica Neue&quot;, sans-serif; font-size: 12px; font-weight: 200;" fill="rgb(50, 49, 63)" stroke="none" stroke-width="1px">5k</text><text x="547.4296875" y="0" dx="0em" dy="0.95em" style="text-anchor: middle; visibility: inherit; font-family: &quot;Helvetica Neue&quot;, sans-serif; font-size: 12px; font-weight: 200;" fill="rgb(50, 49, 63)" stroke="none" stroke-width="1px">10k</text><text x="729.90625" y="0" dx="0em" dy="0.95em" style="text-anchor: middle; visibility: inherit; font-family: &quot;Helvetica Neue&quot;, sans-serif; font-size: 12px; font-weight: 200;" fill="rgb(50, 49, 63)" stroke="none" stroke-width="1px">15k</text><text x="912.3828125" y="0" dx="0em" dy="0.95em" style="text-anchor: middle; visibility: inherit; font-family: &quot;Helvetica Neue&quot;, sans-serif; font-size: 12px; font-weight: 200;" fill="rgb(50, 49, 63)" stroke="none" stroke-width="1px">20k</text><text x="1094.859375" y="0" dx="0em" dy="0.95em" style="text-anchor: middle; visibility: inherit; font-family: &quot;Helvetica Neue&quot;, sans-serif; font-size: 12px; font-weight: 200;" fill="rgb(50, 49, 63)" stroke="none" stroke-width="1px">25k</text><text x="1277.3359375" y="0" dx="0em" dy="0.95em" style="text-anchor: middle; visibility: inherit; font-family: &quot;Helvetica Neue&quot;, sans-serif; font-size: 12px; font-weight: 200;" fill="rgb(50, 49, 63)" stroke="none" stroke-width="1px">30k</text><text x="1459.8125" y="0" dx="0em" dy="0.95em" style="text-anchor: middle; visibility: hidden; font-family: &quot;Helvetica Neue&quot;, sans-serif; font-size: 12px; font-weight: 200;" fill="rgb(50, 49, 63)" stroke="none" stroke-width="1px">35k</text></g><line x1="0" y1="0" x2="1459.8125" y2="0" fill="rgb(0, 0, 0)" stroke="rgb(204, 204, 204)" stroke-width="1px"></line></g></g></g></g></svg>